<?xml version="1.0" encoding="UTF-8" standalone="no"?>
<!-- Created with Inkscape (http://www.inkscape.org/) -->

<svg
   xmlns:dc="http://purl.org/dc/elements/1.1/"
   xmlns:cc="http://creativecommons.org/ns#"
   xmlns:rdf="http://www.w3.org/1999/02/22-rdf-syntax-ns#"
   xmlns:svg="http://www.w3.org/2000/svg"
   xmlns="http://www.w3.org/2000/svg"
   xmlns:xlink="http://www.w3.org/1999/xlink"
   xmlns:sodipodi="http://sodipodi.sourceforge.net/DTD/sodipodi-0.dtd"
   xmlns:inkscape="http://www.inkscape.org/namespaces/inkscape"
   width="990"
   height="765"
   id="svg2"
   version="1.1"
   inkscape:version="0.47 r22583"
   sodipodi:docname="hedgehog.svg"
   inkscape:export-filename="/home/roberto/Desktop/hedgehog.png"
   inkscape:export-xdpi="90"
   inkscape:export-ydpi="90">
  <defs
     id="defs4">
    <inkscape:perspective
       sodipodi:type="inkscape:persp3d"
       inkscape:vp_x="0 : 526.18109 : 1"
       inkscape:vp_y="0 : 1000 : 0"
       inkscape:vp_z="744.09448 : 526.18109 : 1"
       inkscape:persp3d-origin="372.04724 : 350.78739 : 1"
       id="perspective10" />
    <inkscape:perspective
       id="perspective2905"
       inkscape:persp3d-origin="0.5 : 0.33333333 : 1"
       inkscape:vp_z="1 : 0.5 : 1"
       inkscape:vp_y="0 : 1000 : 0"
       inkscape:vp_x="0 : 0.5 : 1"
       sodipodi:type="inkscape:persp3d" />
    <inkscape:perspective
       id="perspective3775"
       inkscape:persp3d-origin="0.5 : 0.33333333 : 1"
       inkscape:vp_z="1 : 0.5 : 1"
       inkscape:vp_y="0 : 1000 : 0"
       inkscape:vp_x="0 : 0.5 : 1"
       sodipodi:type="inkscape:persp3d" />
    <inkscape:perspective
       id="perspective3805"
       inkscape:persp3d-origin="0.5 : 0.33333333 : 1"
       inkscape:vp_z="1 : 0.5 : 1"
       inkscape:vp_y="0 : 1000 : 0"
       inkscape:vp_x="0 : 0.5 : 1"
       sodipodi:type="inkscape:persp3d" />
  </defs>
  <sodipodi:namedview
     id="base"
     pagecolor="#ffffff"
     bordercolor="#666666"
     borderopacity="1.0"
     inkscape:pageopacity="0.0"
     inkscape:pageshadow="2"
     inkscape:zoom="0.49497475"
     inkscape:cx="556.85387"
     inkscape:cy="374.88624"
     inkscape:document-units="px"
     inkscape:current-layer="layer2"
     showgrid="false"
     inkscape:window-width="1280"
     inkscape:window-height="997"
     inkscape:window-x="1280"
     inkscape:window-y="0"
     inkscape:window-maximized="1" />
  <metadata
     id="metadata7">
    <rdf:RDF>
      <cc:Work
         rdf:about="">
        <dc:format>image/svg+xml</dc:format>
        <dc:type
           rdf:resource="http://purl.org/dc/dcmitype/StillImage" />
        <dc:title></dc:title>
      </cc:Work>
    </rdf:RDF>
  </metadata>
  <g
     inkscape:label="Layer 1"
     inkscape:groupmode="layer"
     id="layer1"
     sodipodi:insensitive="true"
     style="display:none"
     transform="translate(0,-287.36216)">
    <image
       y="156.48793"
       x="75.714272"
       id="image2907"
       height="288.44571"
       width="767.14288"
       xlink:href="file:///home/roberto/Desktop/cute-hedgehog-buttonhole-button-from-Japan-kawaii-39121-1.jpg" />
  </g>
  <g
     inkscape:groupmode="layer"
     id="layer2"
     inkscape:label="drawing"
     transform="translate(0,-287.36216)">
    <path
       style="fill:#ffcddf;fill-opacity:0.94117647;fill-rule:nonzero;stroke:#000000;stroke-width:0;stroke-linecap:round;stroke-linejoin:round;stroke-miterlimit:4;stroke-opacity:1;stroke-dasharray:none;stroke-dashoffset:0"
       d="m 358.4933,625.49992 c -8.04191,-15.42081 -14.37873,-28.24355 -14.08186,-28.49502 0.52373,-0.4436 85.89403,1.85119 99.62829,2.67805 l 6.82953,0.41116 -37.78167,26.2461 c -20.77992,14.43534 -38.27465,26.46015 -38.87717,26.72182 -0.60252,0.26164 -7.67522,-12.1413 -15.71712,-27.56211 z"
       id="path3743" />
    <path
       style="fill:#ffcddf;fill-opacity:0.94117647;fill-rule:nonzero;stroke:#000000;stroke-width:0;stroke-linecap:round;stroke-linejoin:round;stroke-miterlimit:4;stroke-opacity:1;stroke-dasharray:none;stroke-dashoffset:0"
       d="m 454.37794,757.23058 -11.11858,-26.70138 48.67224,-1.18537 c 26.76974,-0.65196 50.01133,-1.00988 51.648,-0.79533 1.86471,0.2444 -11.74043,10.48633 -36.43938,27.43145 -21.67833,14.87278 -39.91657,27.24631 -40.52943,27.49673 -0.61285,0.25039 -6.11763,-11.56034 -12.23285,-26.2461 l 0,0 z"
       id="path3741" />
    <path
       style="fill:#ffcddf;fill-opacity:0.94117647;fill-rule:nonzero;stroke:#000000;stroke-width:0;stroke-linecap:round;stroke-linejoin:round;stroke-miterlimit:4;stroke-opacity:1;stroke-dasharray:none;stroke-dashoffset:0"
       d="m 626.9769,807.974 c -3.99718,-9.34961 -9.82221,-22.89016 -12.94447,-30.09017 l -5.67687,-13.09092 9.07228,0.75175 c 4.98975,0.41348 28.92148,1.19587 53.18164,1.73868 l 44.10936,0.98692 -36.156,25.45397 c -19.8858,13.99971 -37.99252,26.75787 -40.23714,28.35152 l -4.08116,2.89751 -7.26764,-16.99926 0,0 z"
       id="path3749" />
    <path
       style="fill:#ffcddf;fill-opacity:0.94117647;fill-rule:nonzero;stroke:#000000;stroke-width:0;stroke-linecap:round;stroke-linejoin:round;stroke-miterlimit:4;stroke-opacity:1;stroke-dasharray:none;stroke-dashoffset:0"
       d="m 681.70599,668.13989 c -2.95264,-5.86997 -19.90477,-52.97386 -19.27689,-53.56349 1.58349,-1.48704 102.37704,-2.79744 100.86878,-1.31138 -1.61478,1.59104 -74.75752,54.44745 -78.26077,56.55496 -1.10222,0.66309 -2.50954,-0.0468 -3.33112,-1.68009 z"
       id="path3747" />
    <path
       style="fill:#d2f990;fill-opacity:0.94117647;fill-rule:nonzero;stroke:#000000;stroke-width:0;stroke-linecap:round;stroke-linejoin:round;stroke-miterlimit:4;stroke-opacity:1;stroke-dasharray:none;stroke-dashoffset:0"
       d="m 534.11887,561.52912 c -3.96462,-9.25748 -16.10058,-40.52079 -17.38835,-44.79389 l -1.1528,-3.82526 16.48973,1.00798 c 9.06938,0.5544 32.04624,1.48989 51.05972,2.07885 l 34.56998,1.07083 -30.59331,18.97282 c -16.82629,10.43504 -35.05578,21.78299 -40.50994,25.21765 l -9.91668,6.24485 -2.55835,-5.97383 0,0 z"
       id="path3745" />
    <path
       style="fill:none;stroke:#000000;stroke-width:6.90351534;stroke-linecap:round;stroke-linejoin:round;stroke-miterlimit:4;stroke-opacity:1;stroke-dasharray:none;stroke-dashoffset:0"
       d="m 105.19175,674.36768 c 0,0 40.56212,23.4624 66.01289,7.55568 29.13736,-21.68974 123.18537,-272.54746 157.07883,-254.90517 13.12305,3.18134 19.08806,80.72659 19.08806,80.72659 0,0 17.01252,-33.59566 26.64377,-57.26419 9.94729,-24.44526 20.8642,-56.24726 37.38077,-64.4222 13.59781,-6.73031 23.11952,10.6582 27.4391,35.79011 4.37435,25.45077 1.19299,53.28751 1.19299,53.28751 0,0 52.49217,-109.75635 73.1709,-100.21233 20.67874,9.54405 1.59068,74.76158 1.59068,74.76158 0,0 85.10095,-89.87295 107.37035,-80.32893 22.26941,9.54405 -11.93005,72.37557 -11.93005,72.37557 0,0 128.04908,-71.97788 136.00244,-35.39243 7.95336,36.58544 -53.2875,75.15922 -53.2875,75.15922 0,0 132.36714,-37.5462 138.38843,-11.13471 7.09182,31.10713 -50.90149,57.2642 -50.90149,57.2642 0,0 137.15147,-17.69543 132.02577,19.08806 -2.48012,17.79805 -74.76158,54.08286 -74.76158,54.08286 0,0 54.34646,18.87147 75.55691,31.81345 23.46242,14.31604 42.94815,40.9598 32.60878,50.90149 -17.19913,16.53761 -85.89628,-6.36268 -85.89628,-6.36268 0,0 26.00289,16.9304 60.84317,54.48049 35.79012,38.5738 46.18521,69.32297 37.77847,75.9546 -11.9968,9.46365 -71.58022,-25.45077 -71.58022,-25.45077 C 773.84469,943.14882 200.73866,904.63743 67.810963,750.32225"
       id="path3707"
       sodipodi:nodetypes="ccccssscscscscscscsscsscc" />
    <path
       sodipodi:type="arc"
       style="fill:#fc2c78;fill-opacity:0.94117647;fill-rule:nonzero;stroke:#000000;stroke-width:2.42135453;stroke-linecap:round;stroke-linejoin:round;stroke-miterlimit:4;stroke-opacity:1;stroke-dasharray:none;stroke-dashoffset:0"
       id="path2933"
       sodipodi:cx="119.64286"
       sodipodi:cy="334.86218"
       sodipodi:rx="16.6017"
       sodipodi:ry="17.806469"
       d="m 136.24456,334.86218 a 16.6017,17.806469 0 1 1 -33.2034,0 16.6017,17.806469 0 1 1 33.2034,0 z"
       transform="matrix(2.4660273,0,0,2.8351647,-224.84557,-249.9687)" />
    <path
       style="fill:none;stroke:#000000;stroke-width:8.90776253;stroke-linecap:butt;stroke-linejoin:miter;stroke-miterlimit:4;stroke-opacity:1;stroke-dasharray:none"
       d="M 202.11301,632.38117 C 318.45908,679.3018 320.97592,762.58319 303.4792,857.80204"
       id="path3709"
       sodipodi:nodetypes="cc" />
    <path
       style="fill:none;stroke:#000000;stroke-width:8.90776253;stroke-linecap:butt;stroke-linejoin:miter;stroke-miterlimit:4;stroke-opacity:1;stroke-dasharray:none"
       d="m 338.34721,593.47995 c 3.37433,5.62387 33.74325,65.23695 33.74325,65.23695 l 88.85722,-61.86263 -122.60047,-3.37432 z"
       id="path3711" />
    <path
       style="fill:#ffcddf;fill-opacity:0.94117647;stroke:#000000;stroke-width:8.90776253;stroke-linecap:butt;stroke-linejoin:miter;stroke-miterlimit:4;stroke-opacity:1;stroke-dasharray:none"
       d="m 511.56254,510.2466 c 0,6.74865 23.62027,61.8626 23.62027,61.8626 l 92.23155,-57.36352 -115.85182,-4.49908 z"
       id="path3713" />
    <path
       style="fill:none;stroke:#000000;stroke-width:8.90776253;stroke-linecap:butt;stroke-linejoin:miter;stroke-miterlimit:4;stroke-opacity:1;stroke-dasharray:none"
       d="m 656.6585,610.35158 24.74505,66.36171 93.35631,-67.48649 -118.10136,1.12478 z"
       id="path3715" />
    <path
       style="fill:none;stroke:#000000;stroke-width:8.90776253;stroke-linecap:butt;stroke-linejoin:miter;stroke-miterlimit:4;stroke-opacity:1;stroke-dasharray:none"
       d="m 438.45218,727.32816 25.86983,61.8626 93.35631,-64.11215 -119.22614,2.24955 z"
       id="path3717" />
    <path
       style="fill:none;stroke:#000000;stroke-width:8.90776253;stroke-linecap:butt;stroke-linejoin:miter;stroke-miterlimit:4;stroke-opacity:1;stroke-dasharray:none"
       d="m 603.79407,762.19617 29.24416,67.48649 91.10676,-64.11217 -120.35092,-3.37432 z"
       id="path3719" />
    <path
       style="fill:none;stroke:#000000;stroke-width:8.90776253;stroke-linecap:butt;stroke-linejoin:miter;stroke-miterlimit:4;stroke-opacity:1;stroke-dasharray:none"
       d="m 331.10926,866.08481 c -117.96107,92.08275 68.61575,120.43015 118.31775,14.66688"
       id="path3721"
       sodipodi:nodetypes="cc" />
    <path
       style="fill:none;stroke:#000000;stroke-width:8.90776253;stroke-linecap:butt;stroke-linejoin:miter;stroke-miterlimit:4;stroke-opacity:1;stroke-dasharray:none"
       d="m 692.06649,873.736 c 14.63837,57.22589 95.73952,79.11846 124.58091,54.26798 28.01064,-27.10968 -23.83463,-81.00721 -23.83463,-81.00721"
       id="path3723"
       sodipodi:nodetypes="ccc" />
    <path
       sodipodi:type="arc"
       style="fill:#fc2c78;fill-opacity:0.94117647;fill-rule:nonzero;stroke:#000000;stroke-width:2.4000001;stroke-linecap:round;stroke-linejoin:round;stroke-miterlimit:4;stroke-opacity:1;stroke-dasharray:none;stroke-dashoffset:0"
       id="path3725"
       sodipodi:cx="182.4588"
       sodipodi:cy="344.62405"
       sodipodi:rx="9.7914286"
       sodipodi:ry="11.995562"
       d="m 192.25023,344.62405 a 9.7914286,11.995562 0 1 1 -19.58286,0 9.7914286,11.995562 0 1 1 19.58286,0 z"
       transform="matrix(2.2269405,0,0,2.2269405,-189.5016,-30.616796)" />
    <path
       style="fill:#fc2c78;fill-opacity:0.94117647;fill-rule:nonzero;stroke:#000000;stroke-width:2.22694063;stroke-linecap:round;stroke-linejoin:round;stroke-miterlimit:4;stroke-opacity:1;stroke-dasharray:none;stroke-dashoffset:0"
       d="m 505.09586,881.34069 c -48.20381,-1.69343 -108.03229,-7.7706 -153.81627,-15.62406 -16.62106,-2.85106 -37.52306,-6.88104 -40.86449,-7.87878 -1.61676,-0.48278 -1.59701,-1.59903 0.21312,-12.04441 6.17415,-35.63029 7.11331,-77.6739 2.24807,-100.63934 -4.74086,-22.37841 -13.05945,-41.56805 -25.00057,-57.67239 -15.47347,-20.86821 -41.85383,-40.95482 -70.83891,-53.9383 l -8.55263,-3.83105 19.57968,-39.99964 c 23.76852,-48.55712 47.25014,-94.5495 56.02606,-109.73568 14.85492,-25.70557 29.15057,-44.54257 36.80982,-48.50332 2.92838,-1.51432 3.56025,-1.51122 5.91092,0.029 5.3692,3.51803 10.07421,22.23734 14.49168,57.65634 2.73829,21.95531 3.80711,24.79676 8.26262,21.96596 1.89303,-1.20271 18.13885,-35.28358 26.91142,-56.45542 13.04058,-31.47225 18.60021,-43.39699 23.87507,-51.20916 13.52746,-20.03443 22.83919,-18.85938 30.67285,3.87058 4.07143,11.81356 5.49683,24.23969 5.51157,48.04693 0.0111,18.92913 0.28864,22.80167 1.6686,23.33119 3.37524,1.29521 5.31651,-1.02787 11.98531,-14.34264 22.16961,-44.26327 47.16856,-81.04587 57.83941,-85.10291 2.87391,-1.09267 3.51761,-0.90609 5.72393,1.6589 6.64056,7.72011 6.50322,27.9626 -0.38798,57.19375 -2.96214,12.56482 -2.67088,15.4286 1.56919,15.4286 0.92922,0 11.10373,-9.20207 22.61002,-20.44906 33.7822,-33.02087 61.06217,-54.42448 74.92383,-58.7845 5.77281,-1.81578 6.50211,-1.8307 9.01486,-0.18417 7.5081,4.91949 3.64697,26.80315 -9.64306,54.65369 -5.72462,11.9965 -6.44189,16.8907 -2.47542,16.8907 1.02916,0 11.77517,-5.00024 23.88004,-11.11166 50.49167,-25.49192 78.67598,-35.03253 100.51298,-34.02449 11.79546,0.54453 11.66412,20.38891 -0.24957,37.70482 -7.74517,11.25723 -25.83169,28.43741 -39.16868,37.2059 -5.10588,3.35691 -6.52337,7.86949 -2.90776,9.25692 1.02987,0.39522 11.53246,-1.65294 23.33907,-4.55146 41.55975,-10.20293 67.21791,-14.48485 87.82827,-14.6571 20.64852,-0.17259 25.32278,1.81442 25.29644,10.75325 -0.0379,12.83027 -18.99296,32.23881 -43.62552,44.66902 -7.74933,3.91051 -9.3675,6.08104 -6.59809,8.85044 1.63214,1.63215 3.24333,1.66873 16.18184,0.3674 7.90305,-0.79486 27.52908,-1.6976 43.61336,-2.00607 31.73036,-0.60856 45.95955,0.66886 58.00494,5.2073 12.50492,4.71158 15.59181,10.28942 9.95019,17.97929 -5.76795,7.86208 -32.46456,25.92444 -60.3563,40.83581 -5.71867,3.05728 -10.68629,6.02583 -11.03917,6.5968 -2.08165,3.3682 1.19578,5.43868 19.48876,12.31177 25.58093,9.61134 46.809,18.86399 56.53343,24.64119 15.00071,8.91175 30.43254,25.78111 33.7636,36.90873 1.33581,4.46241 1.26031,4.98115 -1.08913,7.48201 -7.29107,7.761 -33.49541,6.57021 -68.70116,-3.12193 -9.88546,-2.72145 -14.64407,-3.558 -16.02803,-2.81768 -3.78468,2.02458 -2.11421,5.05522 6.18624,11.22331 20.64419,15.34082 50.48788,44.2062 66.40857,64.23163 14.75538,18.55965 24.69791,36.7181 26.16651,47.78894 0.67614,5.09693 0.49803,5.87618 -1.59952,6.99878 -5.16435,2.76386 -25.23431,-4.22878 -51.65701,-17.99798 -8.22351,-4.28539 -15.89917,-7.79159 -17.057,-7.79159 -1.21972,0 -3.80404,2.3143 -6.1442,5.50221 -11.12931,15.16119 -33.8845,32.88672 -59.13997,46.06807 -70.02109,36.54548 -188.10202,55.66102 -316.06171,51.16565 z m 179.96303,-81.93373 c 29.05467,-20.41129 52.83539,-37.49106 52.84601,-37.95502 0.0111,-0.46398 -3.39715,-0.84147 -7.57289,-0.83888 -4.17571,0.002 -34.52802,-0.78994 -67.44955,-1.76118 -32.92153,-0.97124 -61.36648,-1.60605 -63.21101,-1.41068 l -3.35371,0.35522 17.09526,39.6177 c 9.40239,21.78972 17.48314,39.50218 17.95723,39.36099 0.47409,-0.14119 24.63399,-16.95686 53.68866,-37.36815 l 0,0 z m -168.8715,-39.50811 c 29.47068,-20.18628 54.34224,-37.44157 55.27019,-38.34511 1.4798,-1.44089 -4.42382,-1.54371 -48.03544,-0.83644 -27.34743,0.4435 -59.31459,1.12245 -71.03814,1.50873 l -21.31553,0.70236 15.36179,36.82035 c 8.44896,20.25119 15.54455,36.82756 15.76794,36.83638 0.22341,0.009 24.51855,-16.50001 53.98919,-36.68627 l 0,0 z M 735.09034,644.2594 c 29.68198,-21.45744 54.23019,-39.3012 54.55158,-39.65284 0.662,-0.72431 -138.60509,0.68771 -139.33005,1.41266 -0.97647,0.97645 28.42545,78.1814 29.59987,77.7247 0.66626,-0.25906 25.49662,-18.0271 55.1786,-39.48452 l 0,0 z M 427.48639,626.40406 c 51.05363,-35.5422 47.80751,-33.21442 47.14682,-33.80874 -0.77083,-0.69345 -142.84788,-4.35724 -143.50449,-3.7006 -0.33286,0.33284 7.48303,16.20135 17.36862,35.26334 9.88559,19.062 18.81429,36.31449 19.84157,38.33889 l 1.86781,3.68071 5.30076,-3.63875 c 2.91542,-2.00131 26.30593,-18.26201 51.97891,-36.13485 z m 160.67692,-81.15517 c 29.78528,-18.53959 54.15507,-34.00405 54.15507,-34.36546 0,-0.36143 -23.91551,-1.5436 -53.1456,-2.6271 -29.23009,-1.08349 -60.07836,-2.2729 -68.55171,-2.64317 l -15.40609,-0.67321 1.57049,6.732 c 0.86376,3.70258 3.0383,10.73964 4.83235,15.63791 5.81271,15.8704 21.00873,52.22011 21.70926,51.92971 0.37462,-0.15521 25.05092,-15.45109 54.83623,-33.99068 l 0,0 z"
       id="path3753" />
    <path
       style="fill:#ffcddf;fill-opacity:0.94117856;fill-rule:nonzero;stroke:#000000;stroke-width:2.22694063;stroke-linecap:round;stroke-linejoin:round;stroke-miterlimit:4;stroke-opacity:1;stroke-dasharray:none;stroke-dashoffset:0"
       d="m 293.92726,854.84048 c -2.24253,-0.53975 -9.32861,-2.29184 -15.74686,-3.89354 C 186.80166,828.1428 116.51477,794.81984 78.158143,756.11653 l -3.60846,-3.64109 2.46113,-0.48877 c 15.24592,-3.0278 28.167207,-15.52955 33.702907,-32.6086 2.17623,-6.71429 3.04968,-12.32558 3.06843,-19.71263 0.0156,-6.38242 -0.74152,-12.3234 -2.23206,-17.50019 -0.17058,-0.59215 -0.004,-0.55447 2.87162,0.65035 22.78465,9.54592 42.35899,10.76468 56.24884,3.5022 3.28741,-1.71886 4.64095,-2.86129 7.50673,-6.33594 6.04383,-7.32783 13.37841,-19.27746 22.26468,-36.27398 1.21288,-2.31985 2.40746,-4.55566 2.65463,-4.96846 l 0.44937,-0.75059 4.06608,1.75975 c 34.52943,14.94399 60.13969,34.65357 76.17925,58.62735 16.79841,25.10801 24.30345,56.19105 22.83681,94.58148 -0.68158,17.84042 -2.31867,32.5431 -6.10476,54.8268 -1.2786,7.52553 -1.41313,8.08271 -1.94617,8.06095 -0.31493,-0.0134 -2.40741,-0.46496 -4.64991,-1.00468 z m -71.37688,-89.74829 c 12.89555,-3.84094 20.61016,-18.96287 17.78116,-34.85393 -1.28552,-7.22108 -5.08726,-13.68647 -10.54022,-17.92509 -6.76362,-5.25745 -15.89416,-5.93558 -23.36873,-1.73564 -2.34833,1.31951 -5.20071,3.81437 -7.13501,6.24071 -2.17928,2.73366 -4.67708,7.95437 -5.65046,11.81014 -0.69879,2.76815 -0.78179,3.59537 -0.78992,7.87343 -0.0111,5.2302 0.26955,7.19634 1.59886,11.24775 2.95818,9.01574 9.46948,15.51184 17.63129,17.59013 2.75568,0.70169 7.67664,0.5854 10.47303,-0.2475 l 0,0 z"
       id="path3757" />
    <path
       style="fill:#ffcddf;fill-opacity:0.94117647;fill-rule:nonzero;stroke:#000000;stroke-width:2.22694063;stroke-linecap:round;stroke-linejoin:round;stroke-miterlimit:4;stroke-opacity:1;stroke-dasharray:none;stroke-dashoffset:0"
       d="m 326.32612,942.56603 c -13.76708,-2.30889 -24.67969,-8.97101 -27.6356,-16.87143 -4.67074,-12.48367 5.8013,-30.96496 28.30426,-49.95206 l 6.33309,-5.34363 10.4123,1.91004 c 22.88257,4.19759 63.22371,9.68227 87.08355,11.83967 5.72231,0.5174 10.49471,1.02691 10.60539,1.13222 0.34726,0.33052 -4.95577,8.51141 -8.46414,13.05742 -18.15101,23.51943 -46.54702,39.65542 -77.91924,44.27743 -7.14953,1.05337 -22.29938,1.02727 -28.71961,-0.049 l 0,0 z"
       id="path3763" />
    <path
       style="fill:#ffcddf;fill-opacity:0.94117647;fill-rule:nonzero;stroke:#000000;stroke-width:2.22694063;stroke-linecap:round;stroke-linejoin:round;stroke-miterlimit:4;stroke-opacity:1;stroke-dasharray:none;stroke-dashoffset:0"
       d="m 772.15505,932.55727 c -34.04333,-5.23901 -62.45112,-25.66493 -73.01831,-52.50197 -0.63942,-1.62389 -1.0343,-2.95252 -0.87755,-2.95252 0.15678,0 5.99199,-1.13525 12.96712,-2.52279 24.5183,-4.87731 44.59976,-10.13891 65.62152,-17.19361 l 14.49674,-4.86497 2.71152,3.1519 c 10.95101,12.72948 20.17989,28.1332 23.95828,39.98826 2.06891,6.49139 2.55501,14.8185 1.12959,19.35033 -2.69126,8.55619 -10.27604,14.35946 -22.20603,16.99042 -5.23006,1.15333 -18.90516,1.45953 -24.78288,0.55495 z"
       id="path3765" />
  </g>
</svg>
